HIERARCHY
ROOT Hips
{
	OFFSET 0.000000 97.167313 0.000000
	CHANNELS 6 Xposition Yposition Zposition Xrotation Yrotation Zrotation
	JOINT Spine
	{
		OFFSET 0.000000 13.784798 0.064400
		CHANNELS 3 Xrotation Yrotation Zrotation
		JOINT Spine1
		{
			OFFSET 0.000000 12.037903 0.404700
			CHANNELS 3 Xrotation Yrotation Zrotation
			JOINT Spine2
			{
				OFFSET 0.000000 17.795601 0.420200
				CHANNELS 3 Xrotation Yrotation Zrotation
				JOINT Neck
				{
					OFFSET 0.000000 39.131302 11.954600
					CHANNELS 3 Xrotation Yrotation Zrotation
					JOINT Head
					{
						OFFSET 0.000000 14.456192 15.627699
						CHANNELS 3 Xrotation Yrotation Zrotation
						JOINT HeadTop_End
						{
							OFFSET 0.000000 15.703506 7.603401
							CHANNELS 3 Xrotation Yrotation Zrotation
							End Site
							{
								OFFSET 0.000000 17.447403 0.000000
							}
						}
					}
				}
				JOINT LeftShoulder
				{
					OFFSET 17.399500 24.608795 1.168800
					CHANNELS 3 Xrotation Yrotation Zrotation
					JOINT LeftArm
					{
						OFFSET 18.980635 5.765305 1.818600
						CHANNELS 3 Xrotation Yrotation Zrotation
						JOINT LeftForeArm
						{
							OFFSET 49.290169 0.000000 0.000000
							CHANNELS 3 Xrotation Yrotation Zrotation
							JOINT LeftHand
							{
								OFFSET 31.562012 0.000000 0.000000
								CHANNELS 3 Xrotation Yrotation Zrotation
								JOINT LeftHandThumb1
								{
									OFFSET 6.133995 -4.388519 7.076070
									CHANNELS 3 Xrotation Yrotation Zrotation
									JOINT LeftHandThumb2
									{
										OFFSET 6.037666 -3.485840 3.485847
										CHANNELS 3 Xrotation Yrotation Zrotation
										JOINT LeftHandThumb3
										{
											OFFSET 6.496506 -3.750763 3.750761
											CHANNELS 3 Xrotation Yrotation Zrotation
											JOINT LeftHandThumb4
											{
												OFFSET 5.616882 -3.242905 3.242910
												CHANNELS 3 Xrotation Yrotation Zrotation
												End Site
												{
													OFFSET -1.254608 7.132141 0.375429
												}
											}
										}
									}
								}
								JOINT LeftHandPinky1
								{
									OFFSET 18.920792 -0.453171 -11.426712
									CHANNELS 3 Xrotation Yrotation Zrotation
									JOINT LeftHandPinky2
									{
										OFFSET 4.919586 0.000000 0.000000
										CHANNELS 3 Xrotation Yrotation Zrotation
										JOINT LeftHandPinky3
										{
											OFFSET 5.233047 0.000000 0.000000
											CHANNELS 3 Xrotation Yrotation Zrotation
											JOINT LeftHandPinky4
											{
												OFFSET 5.571716 0.000000 0.000000
												CHANNELS 3 Xrotation Yrotation Zrotation
												End Site
												{
													OFFSET -3.459808 4.342407 -0.466164
												}
											}
										}
									}
								}
								JOINT LeftHandRing1
								{
									OFFSET 22.726120 -0.094986 -6.500475
									CHANNELS 3 Xrotation Yrotation Zrotation
									JOINT LeftHandRing2
									{
										OFFSET 6.408615 0.000000 0.000000
										CHANNELS 3 Xrotation Yrotation Zrotation
										JOINT LeftHandRing3
										{
											OFFSET 6.150223 0.000000 0.000000
											CHANNELS 3 Xrotation Yrotation Zrotation
											JOINT LeftHandRing4
											{
												OFFSET 6.145386 0.000000 0.000000
												CHANNELS 3 Xrotation Yrotation Zrotation
												End Site
												{
													OFFSET -3.671402 4.923981 -0.202372
												}
											}
										}
									}
								}
								JOINT LeftHandMiddle1
								{
									OFFSET 23.373947 0.000000 0.000001
									CHANNELS 3 Xrotation Yrotation Zrotation
									JOINT LeftHandMiddle2
									{
										OFFSET 6.996567 0.000000 0.000000
										CHANNELS 3 Xrotation Yrotation Zrotation
										JOINT LeftHandMiddle3
										{
											OFFSET 7.015945 0.000000 0.000000
											CHANNELS 3 Xrotation Yrotation Zrotation
											JOINT LeftHandMiddle4
											{
												OFFSET 7.721573 0.000000 0.000000
												CHANNELS 3 Xrotation Yrotation Zrotation
												End Site
												{
													OFFSET -4.651108 6.158463 0.251582
												}
											}
										}
									}
								}
								JOINT LeftHandIndex1
								{
									OFFSET 21.310577 -0.490082 6.209344
									CHANNELS 3 Xrotation Yrotation Zrotation
									JOINT LeftHandIndex2
									{
										OFFSET 7.536453 0.000000 0.000000
										CHANNELS 3 Xrotation Yrotation Zrotation
										JOINT LeftHandIndex3
										{
											OFFSET 7.512344 0.000000 0.000000
											CHANNELS 3 Xrotation Yrotation Zrotation
											JOINT LeftHandIndex4
											{
												OFFSET 10.212402 0.000000 0.000001
												CHANNELS 3 Xrotation Yrotation Zrotation
												End Site
												{
													OFFSET -5.180801 8.690506 1.388433
												}
											}
										}
									}
								}
							}
						}
					}
				}
				JOINT RightShoulder
				{
					OFFSET -17.399500 24.608795 1.168800
					CHANNELS 3 Xrotation Yrotation Zrotation
					JOINT RightArm
					{
						OFFSET -18.980635 5.765305 1.818600
						CHANNELS 3 Xrotation Yrotation Zrotation
						JOINT RightForeArm
						{
							OFFSET -49.290169 0.000000 0.000000
							CHANNELS 3 Xrotation Yrotation Zrotation
							JOINT RightHand
							{
								OFFSET -31.562012 0.000000 0.000000
								CHANNELS 3 Xrotation Yrotation Zrotation
								JOINT RightHandThumb1
								{
									OFFSET -6.133995 -4.388519 7.076070
									CHANNELS 3 Xrotation Yrotation Zrotation
									JOINT RightHandThumb2
									{
										OFFSET -6.037666 -3.485840 3.485847
										CHANNELS 3 Xrotation Yrotation Zrotation
										JOINT RightHandThumb3
										{
											OFFSET -6.496506 -3.750763 3.750761
											CHANNELS 3 Xrotation Yrotation Zrotation
											JOINT RightHandThumb4
											{
												OFFSET -5.616882 -3.242905 3.242910
												CHANNELS 3 Xrotation Yrotation Zrotation
												End Site
												{
													OFFSET 1.254608 7.132141 0.375429
												}
											}
										}
									}
								}
								JOINT RightHandIndex1
								{
									OFFSET -21.310577 -0.490082 6.209344
									CHANNELS 3 Xrotation Yrotation Zrotation
									JOINT RightHandIndex2
									{
										OFFSET -7.536453 0.000000 0.000000
										CHANNELS 3 Xrotation Yrotation Zrotation
										JOINT RightHandIndex3
										{
											OFFSET -7.512344 0.000000 0.000000
											CHANNELS 3 Xrotation Yrotation Zrotation
											JOINT RightHandIndex4
											{
												OFFSET -10.212402 0.000000 0.000001
												CHANNELS 3 Xrotation Yrotation Zrotation
												End Site
												{
													OFFSET 5.180801 8.690506 1.388433
												}
											}
										}
									}
								}
								JOINT RightHandMiddle1
								{
									OFFSET -23.373947 0.000000 0.000001
									CHANNELS 3 Xrotation Yrotation Zrotation
									JOINT RightHandMiddle2
									{
										OFFSET -6.996567 0.000000 0.000000
										CHANNELS 3 Xrotation Yrotation Zrotation
										JOINT RightHandMiddle3
										{
											OFFSET -7.015945 0.000000 0.000000
											CHANNELS 3 Xrotation Yrotation Zrotation
											JOINT RightHandMiddle4
											{
												OFFSET -7.721573 0.000000 0.000000
												CHANNELS 3 Xrotation Yrotation Zrotation
												End Site
												{
													OFFSET 4.651108 6.158463 0.251582
												}
											}
										}
									}
								}
								JOINT RightHandRing1
								{
									OFFSET -22.726120 -0.094986 -6.500475
									CHANNELS 3 Xrotation Yrotation Zrotation
									JOINT RightHandRing2
									{
										OFFSET -6.408615 0.000000 0.000000
										CHANNELS 3 Xrotation Yrotation Zrotation
										JOINT RightHandRing3
										{
											OFFSET -6.150223 0.000000 0.000000
											CHANNELS 3 Xrotation Yrotation Zrotation
											JOINT RightHandRing4
											{
												OFFSET -6.145386 0.000000 0.000000
												CHANNELS 3 Xrotation Yrotation Zrotation
												End Site
												{
													OFFSET 3.671402 4.923981 -0.202372
												}
											}
										}
									}
								}
								JOINT RightHandPinky1
								{
									OFFSET -18.920792 -0.453171 -11.426712
									CHANNELS 3 Xrotation Yrotation Zrotation
									JOINT RightHandPinky2
									{
										OFFSET -4.919586 0.000000 0.000000
										CHANNELS 3 Xrotation Yrotation Zrotation
										JOINT RightHandPinky3
										{
											OFFSET -5.233047 0.000000 0.000000
											CHANNELS 3 Xrotation Yrotation Zrotation
											JOINT RightHandPinky4
											{
												OFFSET -5.571716 0.000000 0.000000
												CHANNELS 3 Xrotation Yrotation Zrotation
												End Site
												{
													OFFSET 3.459808 4.342407 -0.466164
												}
											}
										}
									}
								}
							}
						}
					}
				}
			}
		}
	}
	JOINT LeftUpLeg
	{
		OFFSET 19.899099 -7.885101 -3.429500
		CHANNELS 3 Xrotation Yrotation Zrotation
		JOINT LeftLeg
		{
			OFFSET 1.745560 -36.997807 10.304700
			CHANNELS 3 Xrotation Yrotation Zrotation
			JOINT LeftFoot
			{
				OFFSET -1.745558 -29.803308 -13.615400
				CHANNELS 3 Xrotation Yrotation Zrotation
				JOINT LeftToeBase
				{
					OFFSET 1.181900 -18.539904 15.226099
					CHANNELS 3 Xrotation Yrotation Zrotation
					JOINT LeftToe_End
					{
						OFFSET -0.863701 1.402801 16.534700
						CHANNELS 3 Xrotation Yrotation Zrotation
						End Site
						{
							OFFSET 0.000000 16.616566 0.000000
						}
					}
				}
			}
		}
	}
	JOINT RightUpLeg
	{
		OFFSET -19.899099 -7.885101 -3.429500
		CHANNELS 3 Xrotation Yrotation Zrotation
		JOINT RightLeg
		{
			OFFSET -1.745560 -36.997807 10.304700
			CHANNELS 3 Xrotation Yrotation Zrotation
			JOINT RightFoot
			{
				OFFSET 1.745558 -29.803308 -13.615400
				CHANNELS 3 Xrotation Yrotation Zrotation
				JOINT RightToeBase
				{
					OFFSET -1.181900 -18.539904 15.226099
					CHANNELS 3 Xrotation Yrotation Zrotation
					JOINT RightToe_End
					{
						OFFSET 0.863701 1.402801 16.534700
						CHANNELS 3 Xrotation Yrotation Zrotation
						End Site
						{
							OFFSET 0.000000 16.616566 0.000000
						}
					}
				}
			}
		}
	}
}
MOTION
Frames: 6
Frame Time: 0.033333
-52.926197 87.416275 8.207389 -4.976570 2.359697 -1.942661 11.658274 -0.159812 5.081145 1.454708 -0.315644 1.439297 1.445959 -0.344942 1.452783 -2.177523 0.346208 -0.483415 -11.342398 3.578077 -6.463142 -0.000000 -0.000000 -0.000000 0.622068 -1.906102 -11.821824 0.993293 -28.625615 -71.246345 0.000001 -5.239396 -0.000017 -30.649992 -3.579215 0.894062 -9.612998 10.925046 -0.291566 14.657552 14.208160 9.359021 1.660912 0.078684 24.352481 -0.000001 0.000002 -0.000002 1.588535 6.296140 -42.247681 1.311285 3.695123 -39.065438 1.311283 3.695125 -39.065434 0.000002 0.000000 -0.000002 1.453324 6.142852 -40.243461 1.247607 3.615415 -38.066584 1.376356 3.773706 -40.064452 -0.000001 -0.000000 0.000002 1.017537 5.560769 -33.112030 1.000053 3.275401 -33.949182 1.117033 3.442517 -35.945633 0.000000 -0.000000 0.000006 0.637952 4.887863 -25.540487 0.611652 2.608157 -26.392228 0.611647 2.608149 -26.392247 -0.000001 -0.000000 0.000001 0.739506 2.663422 12.759569 10.675046 35.060495 47.516059 0.000027 29.299422 -0.000044 -9.290610 15.116652 1.375952 -10.006084 -9.897269 -2.728156 13.479336 -19.954452 -5.400689 0.385497 -4.467377 -24.967415 -0.000001 -0.000001 -0.000000 2.208831 -6.859748 33.346408 0.954103 -2.826247 37.301873 0.937353 -2.804129 36.960647 -0.000002 -0.000001 0.000001 2.645428 -7.023586 40.579448 1.337428 -3.268113 44.503440 1.433222 -3.362632 46.159743 -0.000002 -0.000001 -0.000006 1.698231 -5.834506 49.731953 1.557691 -3.477672 48.245533 1.680914 -3.583667 50.246485 -0.000007 0.000001 -0.000003 1.824611 -5.937252 51.738324 1.618816 -3.531205 49.245947 1.618842 -3.531205 49.245975 0.000002 -0.000001 -0.000001 -3.977977 7.688631 -4.427105 34.954333 -8.370621 1.878290 -23.057032 -3.693229 9.736741 -1.032344 -0.000001 -0.000003 -0.000000 0.000000 0.000000 -4.123012 -7.361939 -4.729703 31.172574 -3.862269 4.465994 -21.071011 -4.358611 1.728745 -2.944400 -0.000002 0.000001 -0.000000 -0.000000 0.000000 
-52.491783 87.717636 8.025053 -4.108626 3.475501 -0.970703 11.385688 0.239619 5.103297 1.277613 -0.196953 1.325365 1.271538 -0.225889 1.335752 -2.441633 0.326818 -0.602627 -10.419296 3.438790 -7.288872 -0.000000 0.000000 -0.000000 0.619643 -1.886336 -11.967869 2.109699 -28.766469 -71.031884 -0.000004 -5.653727 -0.000007 -34.944337 -3.822292 0.428499 -9.613001 10.925051 -0.291564 14.657548 14.208157 9.359018 1.660913 0.078680 24.352483 0.000000 -0.000001 0.000001 1.601811 6.310609 -42.440330 1.323681 3.710312 -39.257431 1.323684 3.710321 -39.257448 -0.000001 0.000001 -0.000007 1.466081 6.157783 -40.435980 1.259740 3.630822 -38.258560 1.389019 3.788678 -40.256486 -0.000000 0.000000 0.000003 1.028320 5.577157 -33.304259 1.011040 3.291637 -34.141015 1.128580 3.458356 -36.137510 0.000000 0.000000 0.000001 0.646466 4.905528 -25.732369 0.620396 2.625696 -26.583841 0.620391 2.625690 -26.583837 -0.000000 0.000001 0.000002 0.728509 2.773934 12.826007 11.017270 37.711045 46.594239 0.000007 30.095480 -0.000006 -10.865969 16.210580 1.027766 -10.006085 -9.897261 -2.728151 13.479337 -19.954454 -5.400688 0.385497 -4.467378 -24.967417 -0.000000 0.000003 -0.000001 2.262629 -6.904584 34.183980 0.995643 -2.879901 38.136488 0.978532 -2.857970 37.794452 -0.000000 -0.000001 0.000001 2.709540 -7.046795 41.418441 1.385444 -3.316170 45.339349 1.482513 -3.409211 46.994328 0.000003 0.000001 -0.000004 1.750518 -5.877914 50.569081 1.608651 -3.522417 49.080407 1.733440 -3.626625 51.081591 -0.000002 0.000003 -0.000003 1.878423 -5.978825 52.575695 1.670575 -3.575064 50.080948 1.670586 -3.575067 50.080955 0.000004 0.000002 -0.000003 -7.489887 8.587820 -3.347464 36.386081 -8.028968 0.156576 -18.482239 -4.577151 8.322687 -4.810609 -0.000000 -0.000002 -0.000000 -0.000000 0.000000 -4.959170 -7.315085 -5.878883 31.198556 -5.014213 3.664192 -20.961267 -4.652938 3.149010 -2.943235 -0.000001 0.000001 0.000000 0.000000 -0.000000 
-51.773716 87.979813 7.631876 -2.975633 4.669249 0.085690 11.507420 0.821508 5.208224 1.136047 -0.043797 1.235506 1.132681 -0.074532 1.243647 -2.785342 0.292225 -0.804037 -9.615505 2.845510 -8.304735 0.000000 -0.000001 0.000000 0.621742 -1.850716 -12.028131 2.996645 -28.530445 -70.993874 -0.000003 -6.149444 -0.000005 -38.675909 -3.696449 0.196579 -9.612999 10.925050 -0.291566 14.657552 14.208160 9.359017 1.660912 0.078683 24.352483 0.000002 0.000001 -0.000001 1.621911 6.332349 -42.730647 1.342462 3.733122 -39.546744 1.342466 3.733134 -39.546751 0.000002 0.000000 -0.000002 1.485398 6.180209 -40.726181 1.278112 3.653955 -38.547805 1.408196 3.811165 -40.545850 -0.000000 -0.000001 0.000003 1.044671 5.601796 -33.593961 1.027701 3.316030 -34.430068 1.146084 3.482156 -36.426673 -0.000001 0.000000 0.000001 0.659396 4.932088 -26.021564 0.633689 2.652068 -26.872546 0.633691 2.652050 -26.872539 0.000000 -0.000000 -0.000001 0.703536 2.960115 12.858272 11.680174 40.239998 45.382598 0.000016 31.525326 -0.000018 -12.299875 17.077983 1.166644 -10.006089 -9.897259 -2.728154 13.479338 -19.954449 -5.400689 0.385494 -4.467377 -24.967415 0.000001 0.000004 0.000003 2.312376 -6.944365 34.942213 1.033927 -2.927931 38.891988 1.016484 -2.906202 38.549215 -0.000002 -0.000001 -0.000002 2.767354 -7.066573 42.177873 1.429513 -3.359081 46.096035 1.527709 -3.450744 47.749832 0.000001 0.000000 -0.000008 1.798409 -5.916540 51.326874 1.655345 -3.562277 49.836161 1.781499 -3.664826 51.837523 0.000002 0.000004 -0.000003 1.927641 -6.015760 53.333706 1.717978 -3.614111 50.836794 1.717971 -3.614117 50.836794 0.000001 0.000001 0.000002 -12.623871 9.745505 -1.462940 38.843586 -7.094642 -1.954192 -11.821487 -5.106081 5.922907 -9.858807 -0.019707 1.407245 0.000000 -0.000000 0.000000 -6.409154 -7.462010 -7.589272 31.375287 -5.748453 3.072900 -20.658768 -4.997401 4.543420 -2.940160 -0.000006 0.000001 0.000000 -0.000001 -0.000000 
-50.873543 87.557915 7.159948 -1.995724 5.873004 1.219549 12.061023 1.362512 5.082363 1.169732 0.092827 1.183772 1.168479 0.059778 1.190900 -3.080230 0.237287 -0.971785 -10.695869 2.139809 -9.177840 -0.000000 -0.000000 -0.000000 0.622796 -1.802669 -12.017156 3.678155 -28.005895 -71.077612 -0.000001 -6.724524 -0.000006 -41.804945 -3.315597 0.240495 -9.613002 10.925049 -0.291567 14.657550 14.208159 9.359021 1.660912 0.078688 24.352481 0.000002 0.000001 -0.000002 1.648165 6.360414 -43.107428 1.367005 3.762584 -39.922223 1.367014 3.762603 -39.922237 -0.000003 -0.000001 -0.000004 1.510638 6.209165 -41.102784 1.302137 3.683839 -38.923220 1.433255 3.840193 -40.921405 0.000000 -0.000001 0.000003 1.066077 5.633643 -33.969925 1.049496 3.347559 -34.805206 1.168976 3.512911 -36.801947 -0.000002 0.000000 0.000004 0.676378 4.966474 -26.396933 0.651144 2.686180 -27.247221 0.651139 2.686175 -27.247225 -0.000001 0.000003 -0.000003 0.683238 3.106343 12.898038 12.223994 42.666634 44.054560 0.000014 33.136974 -0.000003 -13.418983 17.552271 1.643001 -10.006089 -9.897269 -2.728156 13.479331 -19.954452 -5.400689 0.385498 -4.467377 -24.967413 0.000000 0.000000 0.000002 2.357196 -6.978628 35.609984 1.068164 -2.969818 39.557300 1.050420 -2.948220 39.213841 -0.000001 0.000000 -0.000001 2.817948 -7.082935 42.846600 1.468755 -3.396356 46.762364 1.567979 -3.486817 48.415103 -0.000002 0.000001 -0.000004 1.840987 -5.950054 51.994204 1.696902 -3.596874 50.501684 1.824240 -3.697958 52.503172 0.000003 -0.000002 -0.000005 1.971375 -6.047768 54.001238 1.760135 -3.647971 51.502375 1.760133 -3.647957 51.502369 0.000002 0.000001 0.000002 -19.157453 10.964848 1.130777 42.953748 -8.000218 -3.858032 -4.677759 -5.946700 2.893927 -13.633412 -0.256057 4.933083 0.000000 -0.000000 -0.000000 -8.593399 -8.045918 -10.182801 33.358193 -5.396895 3.262934 -21.397121 -5.313412 5.447873 -2.931568 -0.000013 0.000001 -0.000000 -0.000001 0.000000 
-49.759010 86.552071 6.605517 -1.804259 7.242152 1.876341 13.280736 1.463155 5.335696 1.443114 0.078736 1.214515 1.441525 0.043406 1.222879 -3.257794 0.198221 -1.021182 -12.751874 1.831823 -9.653881 0.000000 -0.000000 -0.000000 0.623095 -1.746927 -11.949484 4.191936 -27.276717 -71.222194 0.000006 -7.376933 0.000027 -44.299388 -2.774704 0.566868 -9.613002 10.925044 -0.291566 14.657550 14.208162 9.359021 1.660909 0.078681 24.352479 0.000002 0.000001 0.000004 1.679909 6.393837 -43.559487 1.396703 3.797724 -40.372733 1.396708 3.797726 -40.372736 -0.000000 0.000001 -0.000000 1.541176 6.243680 -41.554622 1.331216 3.719484 -39.373643 1.463564 3.874806 -41.371989 -0.000001 -0.000001 0.000005 1.092041 5.671657 -34.421025 1.075927 3.385198 -35.255292 1.196709 3.549611 -37.252200 -0.000001 0.000000 0.000004 0.697056 5.007554 -26.847257 0.672364 2.726965 -27.696765 0.672370 2.726950 -27.696752 -0.000001 0.000001 0.000001 0.673385 3.149124 12.974568 12.330324 45.045955 42.647380 0.000005 34.855282 -0.000005 -14.056914 17.422366 2.497844 -10.006087 -9.897265 -2.728153 13.479338 -19.954447 -5.400689 0.385496 -4.467379 -24.967413 0.000001 -0.000001 0.000001 2.397665 -7.005725 36.175714 1.097577 -3.005024 40.121945 1.079579 -2.983562 39.777283 -0.000002 -0.000003 -0.000001 2.860271 -7.095680 43.413478 1.502375 -3.427583 47.327248 1.602422 -3.517033 48.979082 -0.000000 0.000002 -0.000004 1.877407 -5.978054 52.559941 1.732430 -3.625808 51.065862 1.860777 -3.725634 53.067500 -0.000000 -0.000001 -0.000005 2.008777 -6.074474 54.567133 1.796150 -3.676283 52.066628 1.796174 -3.676295 52.066645 -0.000000 0.000000 0.000001 -24.758555 10.872916 4.332644 48.221696 -8.358628 -4.189805 -1.200060 -8.575942 -0.285420 -13.438275 -0.593658 7.432778 0.000001 -0.000000 0.000000 -10.177410 -8.351825 -12.504815 36.326972 -5.041460 3.497936 -22.750824 -5.902883 6.626107 -2.927676 0.000009 0.000000 -0.000000 0.000000 -0.000000 
-48.518402 85.307739 5.961768 -2.644223 8.656986 2.521115 14.995925 1.007629 5.669556 1.897158 -0.085419 1.260249 1.892942 -0.121152 1.273083 -3.218517 0.205654 -0.994067 -14.972751 2.021796 -9.598617 -0.000000 0.000001 0.000000 0.622630 -1.688165 -11.839662 4.581890 -26.424318 -71.365867 0.000002 -8.104696 0.000008 -46.129325 -2.149262 1.155252 -9.612999 10.925045 -0.291567 14.657554 14.208158 9.359024 1.660911 0.078684 24.352483 0.000001 0.000004 -0.000002 1.716460 6.431700 -44.075672 1.430952 3.837551 -40.887097 1.430953 3.837553 -40.887076 0.000004 0.000000 -0.000002 1.576365 6.282798 -42.070564 1.364760 3.759894 -39.887898 1.498509 3.914039 -41.886439 0.000001 0.000001 0.000002 1.122044 5.714813 -34.936110 1.106456 3.427915 -35.769188 1.228723 3.591234 -37.766257 -0.000000 0.000001 0.000004 0.721060 5.054268 -27.361459 0.696989 2.773318 -28.210032 0.696992 2.773312 -28.210040 0.000001 0.000003 0.000002 0.671513 3.137911 13.065740 12.359002 47.260948 41.091671 0.000016 36.744440 0.000005 -14.366562 16.939585 3.556789 -10.006085 -9.897266 -2.728151 13.479335 -19.954451 -5.400689 0.385498 -4.467378 -24.967415 0.000001 -0.000001 0.000001 2.431840 -7.025939 36.628262 1.121458 -3.033078 40.574981 1.103168 -3.011631 40.228441 -0.000002 0.000002 0.000001 2.896025 -7.107534 43.867371 1.529519 -3.452379 47.779588 1.630223 -3.540970 49.430666 -0.000001 -0.000000 -0.000001 1.906750 -6.000226 53.012926 1.761108 -3.648740 51.517638 1.890221 -3.747529 53.519365 0.000003 -0.000003 -0.000004 2.038876 -6.095622 55.020254 1.825225 -3.698709 52.518428 1.825228 -3.698720 52.518452 -0.000001 0.000001 -0.000001 -27.896385 10.286264 6.986764 54.506306 -8.718554 -3.160302 -2.109319 -4.352390 1.349105 -10.326895 -0.500880 4.091877 0.000000 0.000001 -0.000000 -10.745007 -8.669271 -14.943744 39.649877 -4.617704 3.719890 -24.363368 -6.467405 8.038795 -2.928074 0.000001 -0.000001 0.000000 0.000001 -0.000000 
